<?xml version="1.0" standalone="no"?>
<!DOCTYPE svg PUBLIC "-//W3C//DTD SVG 20010904//EN"
 "http://www.w3.org/TR/2001/REC-SVG-20010904/DTD/svg10.dtd">
<svg version="1.0" xmlns="http://www.w3.org/2000/svg"
 width="260.000000pt" height="260.000000pt" viewBox="0 0 260.000000 260.000000"
 preserveAspectRatio="xMidYMid meet">
<metadata>
Created by potrace 1.11, written by Peter Selinger 2001-2013
</metadata>
<g transform="translate(0.000000,260.000000) scale(0.100000,-0.100000)"
fill="#000000" stroke="none">
<path d="M863 2458 c-4 -7 -10 -159 -13 -338 l-5 -325 -91 -3 c-131 -4 -125 9
-122 -258 l3 -219 85 -3 c47 -1 95 -4 108 -7 l22 -5 0 -315 0 -315 29 -83 c68
-198 140 -291 340 -444 16 -13 36 -23 44 -23 8 0 25 -9 39 -19 13 -11 42 -23
64 -27 21 -4 55 -15 74 -25 31 -17 60 -19 280 -19 178 0 249 3 258 12 19 19
17 400 -3 437 l-14 28 -218 5 c-205 5 -220 6 -258 28 -56 33 -92 67 -123 120
l-26 45 -4 290 c-3 268 -2 290 14 302 14 10 88 13 320 13 248 0 304 3 313 14
9 10 11 73 9 219 -3 185 -5 207 -22 226 -19 20 -27 21 -321 21 -267 0 -304 2
-309 16 -3 9 -6 156 -6 328 0 229 -3 315 -12 324 -17 17 -444 17 -455 0z"/>
</g>
</svg>
